<svg width="320" height="320" viewBox="0 0 320 320" fill="none" xmlns="http://www.w3.org/2000/svg">
<g clip-path="url(#clip0_327_2738)">
<path d="M230 210H90V220H230V210Z" fill="#63A0F9"/>
<path d="M230 220H90V230H230V220Z" fill="#63A0F9"/>
<path d="M230 230H90V240H230V230Z" fill="#63A0F9"/>
<path d="M230 240H90V250H230V240Z" fill="#63A0F9"/>
<path d="M110 250H90V260H110V250Z" fill="#63A0F9"/>
<path d="M230 250H120V260H230V250Z" fill="#63A0F9"/>
<path d="M110 260H90V270H110V260Z" fill="#63A0F9"/>
<path d="M230 260H120V270H230V260Z" fill="#63A0F9"/>
<path d="M110 270H90V280H110V270Z" fill="#63A0F9"/>
<path d="M230 270H120V280H230V270Z" fill="#63A0F9"/>
<path d="M110 280H90V290H110V280Z" fill="#63A0F9"/>
<path d="M230 280H120V290H230V280Z" fill="#63A0F9"/>
<path d="M110 290H90V300H110V290Z" fill="#63A0F9"/>
<path d="M230 290H120V300H230V290Z" fill="#63A0F9"/>
<path d="M110 300H90V310H110V300Z" fill="#63A0F9"/>
<path d="M230 300H120V310H230V300Z" fill="#63A0F9"/>
<path d="M110 310H90V320H110V310Z" fill="#63A0F9"/>
<path d="M230 310H120V320H230V310Z" fill="#63A0F9"/>
<path d="M230 210H90V220H230V210Z" fill="#1929F4"/>
<path d="M230 220H90V230H230V220Z" fill="#1929F4"/>
<path d="M230 230H90V240H230V230Z" fill="#1929F4"/>
<path d="M110 250H90V260H110V250Z" fill="#FF82AD"/>
<path d="M230 250H120V260H230V250Z" fill="#FF82AD"/>
<path d="M110 270H90V280H110V270Z" fill="#FFF449"/>
<path d="M230 270H120V280H230V270Z" fill="#FFF449"/>
<path d="M180 50H140V60H180V50Z" fill="#FFB913"/>
<path d="M200 60H120V70H200V60Z" fill="#FFB913"/>
<path d="M220 70H100V80H220V70Z" fill="#FFB913"/>
<path d="M260 70H240V80H260V70Z" fill="#667AF9"/>
<path d="M90 80H40V90H90V80Z" fill="black"/>
<path d="M230 80H90V90H230V80Z" fill="#FFB913"/>
<path d="M260 80H240V90H260V80Z" fill="#667AF9"/>
<path d="M40 90H30V100H40V90Z" fill="black"/>
<path d="M230 90H90V100H230V90Z" fill="#FFB913"/>
<path d="M40 100H30V110H40V100Z" fill="black"/>
<path d="M100 100H80V110H100V100Z" fill="#FE500C"/>
<path d="M230 100H100V110H230V100Z" fill="#FFB913"/>
<path d="M240 100H230V110H240V100Z" fill="#FE500C"/>
<path d="M40 110H30V120H40V110Z" fill="black"/>
<path d="M110 110H80V120H110V110Z" fill="#FE500C"/>
<path d="M230 110H110V120H230V110Z" fill="#FFB913"/>
<path d="M240 110H230V120H240V110Z" fill="#FE500C"/>
<path d="M50 120H40V130H50V120Z" fill="black"/>
<path d="M90 120H70V130H90V120Z" fill="#E11833"/>
<path d="M120 120H90V130H120V120Z" fill="#FE500C"/>
<path d="M230 120H120V130H230V120Z" fill="#FFB913"/>
<path d="M250 120H230V130H250V120Z" fill="#FE500C"/>
<path d="M60 130H50V140H60V130Z" fill="black"/>
<path d="M90 130H70V140H90V130Z" fill="#E11833"/>
<path d="M130 130H90V140H130V130Z" fill="#FE500C"/>
<path d="M220 130H130V140H220V130Z" fill="#FFB913"/>
<path d="M250 130H220V140H250V130Z" fill="#FE500C"/>
<path d="M70 140H60V150H70V140Z" fill="black"/>
<path d="M100 140H70V150H100V140Z" fill="#E11833"/>
<path d="M160 140H100V150H160V140Z" fill="#FE500C"/>
<path d="M210 140H160V150H210V140Z" fill="#FFB913"/>
<path d="M250 140H210V150H250V140Z" fill="#FE500C"/>
<path d="M80 150H70V160H80V150Z" fill="black"/>
<path d="M100 150H80V160H100V150Z" fill="#E11833"/>
<path d="M250 150H100V160H250V150Z" fill="#FE500C"/>
<path d="M90 160H80V170H90V160Z" fill="black"/>
<path d="M130 160H90V170H130V160Z" fill="#E11833"/>
<path d="M240 160H130V170H240V160Z" fill="#FE500C"/>
<path d="M250 160H240V170H250V160Z" fill="black"/>
<path d="M280 160H270V170H280V160Z" fill="#FFB913"/>
<path d="M90 170H80V180H90V170Z" fill="#E11833"/>
<path d="M110 170H90V180H110V170Z" fill="black"/>
<path d="M160 170H110V180H160V170Z" fill="#E11833"/>
<path d="M220 170H160V180H220V170Z" fill="#FE500C"/>
<path d="M240 170H220V180H240V170Z" fill="#E11833"/>
<path d="M260 170H250V180H260V170Z" fill="black"/>
<path d="M110 180H90V190H110V180Z" fill="#E11833"/>
<path d="M130 180H110V190H130V180Z" fill="black"/>
<path d="M230 180H130V190H230V180Z" fill="#E11833"/>
<path d="M270 180H260V190H270V180Z" fill="black"/>
<path d="M80 190H60V200H80V190Z" fill="#FFB913"/>
<path d="M130 190H90V200H130V190Z" fill="#E11833"/>
<path d="M160 190H130V200H160V190Z" fill="black"/>
<path d="M230 190H160V200H230V190Z" fill="#E11833"/>
<path d="M280 190H270V200H280V190Z" fill="black"/>
<path d="M60 200H50V210H60V200Z" fill="#667AF9"/>
<path d="M80 200H60V210H80V200Z" fill="#FFB913"/>
<path d="M160 200H100V210H160V200Z" fill="#E11833"/>
<path d="M190 200H160V210H190V200Z" fill="black"/>
<path d="M220 200H190V210H220V200Z" fill="#E11833"/>
<path d="M280 200H270V210H280V200Z" fill="black"/>
<path d="M70 210H50V220H70V210Z" fill="#667AF9"/>
<path d="M190 210H120V220H190V210Z" fill="#E11833"/>
<path d="M220 210H190V220H220V210Z" fill="black"/>
<path d="M280 210H270V220H280V210Z" fill="black"/>
<path d="M180 220H140V230H180V220Z" fill="#E11833"/>
<path d="M270 220H220V230H270V220Z" fill="black"/>
<path d="M160 110H100V120H160V110Z" fill="#FE500C"/>
<path d="M230 110H170V120H230V110Z" fill="#FE500C"/>
<path d="M110 120H100V130H110V120Z" fill="#FE500C"/>
<path d="M130 120H110V130H130V120Z" fill="white"/>
<path d="M150 120H130V130H150V120Z" fill="black"/>
<path d="M160 120H150V130H160V120Z" fill="#FE500C"/>
<path d="M180 120H170V130H180V120Z" fill="#FE500C"/>
<path d="M200 120H180V130H200V120Z" fill="white"/>
<path d="M220 120H200V130H220V120Z" fill="black"/>
<path d="M230 120H220V130H230V120Z" fill="#FE500C"/>
<path d="M110 130H70V140H110V130Z" fill="#FE500C"/>
<path d="M130 130H110V140H130V130Z" fill="white"/>
<path d="M150 130H130V140H150V130Z" fill="black"/>
<path d="M180 130H150V140H180V130Z" fill="#FE500C"/>
<path d="M200 130H180V140H200V130Z" fill="white"/>
<path d="M220 130H200V140H220V130Z" fill="black"/>
<path d="M230 130H220V140H230V130Z" fill="#FE500C"/>
<path d="M80 140H70V150H80V140Z" fill="#FE500C"/>
<path d="M110 140H100V150H110V140Z" fill="#FE500C"/>
<path d="M130 140H110V150H130V140Z" fill="white"/>
<path d="M150 140H130V150H150V140Z" fill="black"/>
<path d="M160 140H150V150H160V140Z" fill="#FE500C"/>
<path d="M180 140H170V150H180V140Z" fill="#FE500C"/>
<path d="M200 140H180V150H200V140Z" fill="white"/>
<path d="M220 140H200V150H220V140Z" fill="black"/>
<path d="M230 140H220V150H230V140Z" fill="#FE500C"/>
<path d="M80 150H70V160H80V150Z" fill="#FE500C"/>
<path d="M110 150H100V160H110V150Z" fill="#FE500C"/>
<path d="M130 150H110V160H130V150Z" fill="white"/>
<path d="M150 150H130V160H150V150Z" fill="black"/>
<path d="M160 150H150V160H160V150Z" fill="#FE500C"/>
<path d="M180 150H170V160H180V150Z" fill="#FE500C"/>
<path d="M200 150H180V160H200V150Z" fill="white"/>
<path d="M220 150H200V160H220V150Z" fill="black"/>
<path d="M230 150H220V160H230V150Z" fill="#FE500C"/>
<path d="M160 160H100V170H160V160Z" fill="#FE500C"/>
<path d="M230 160H170V170H230V160Z" fill="#FE500C"/>
</g>
<defs>
<clipPath id="clip0_327_2738">
<rect width="320" height="320" fill="white"/>
</clipPath>
</defs>
</svg>
